<svg width="115" height="19" viewBox="0 0 115 19" fill="none" xmlns="http://www.w3.org/2000/svg">
<path d="M10.5341 6C10.4886 5.43182 10.2756 4.98864 9.89489 4.67045C9.51989 4.35227 8.94886 4.19318 8.18182 4.19318C7.69318 4.19318 7.29261 4.25284 6.98011 4.37216C6.6733 4.4858 6.44602 4.64205 6.2983 4.84091C6.15057 5.03977 6.07386 5.26705 6.06818 5.52273C6.05682 5.73295 6.09375 5.9233 6.17898 6.09375C6.26989 6.25852 6.41193 6.40909 6.60511 6.54545C6.7983 6.67614 7.04545 6.79545 7.34659 6.90341C7.64773 7.01136 8.00568 7.10795 8.42045 7.19318L9.85227 7.5C10.8182 7.70455 11.6449 7.97443 12.3324 8.30966C13.0199 8.64489 13.5824 9.03977 14.0199 9.49432C14.4574 9.94318 14.7784 10.4489 14.983 11.0114C15.1932 11.5739 15.3011 12.1875 15.3068 12.8523C15.3011 14 15.0142 14.9716 14.446 15.767C13.8778 16.5625 13.0653 17.1676 12.0085 17.5824C10.9574 17.9972 9.69318 18.2045 8.21591 18.2045C6.69886 18.2045 5.375 17.9801 4.24432 17.5312C3.11932 17.0824 2.24432 16.392 1.61932 15.4602C1 14.5227 0.6875 13.3239 0.681818 11.8636H5.18182C5.21023 12.3977 5.34375 12.8466 5.58239 13.2102C5.82102 13.5739 6.15625 13.8494 6.58807 14.0369C7.02557 14.2244 7.54545 14.3182 8.14773 14.3182C8.65341 14.3182 9.0767 14.2557 9.41761 14.1307C9.75852 14.0057 10.017 13.8324 10.1932 13.6108C10.3693 13.3892 10.4602 13.1364 10.4659 12.8523C10.4602 12.5852 10.3722 12.3523 10.2017 12.1534C10.0369 11.9489 9.7642 11.767 9.38352 11.608C9.00284 11.4432 8.48864 11.2898 7.84091 11.1477L6.10227 10.7727C4.55682 10.4375 3.33807 9.87784 2.44602 9.09375C1.55966 8.30398 1.11932 7.22727 1.125 5.86364C1.11932 4.75568 1.41477 3.78693 2.01136 2.95739C2.61364 2.12216 3.44602 1.47159 4.50852 1.00568C5.5767 0.539772 6.80114 0.306818 8.18182 0.306818C9.59091 0.306818 10.8097 0.542613 11.8381 1.0142C12.8665 1.4858 13.6591 2.15057 14.2159 3.00852C14.7784 3.8608 15.0625 4.85795 15.0682 6H10.5341ZM16.6321 4.36364V0.545454H31.8026V4.36364H26.5526V18H21.8821V4.36364H16.6321ZM49.6747 9.27273C49.6747 11.2159 49.2969 12.8551 48.5412 14.1903C47.7855 15.5199 46.7656 16.5284 45.4815 17.2159C44.1974 17.8977 42.7656 18.2386 41.1861 18.2386C39.5952 18.2386 38.1577 17.8949 36.8736 17.2074C35.5952 16.5142 34.5781 15.5028 33.8224 14.1733C33.0724 12.8381 32.6974 11.2045 32.6974 9.27273C32.6974 7.32955 33.0724 5.69318 33.8224 4.36364C34.5781 3.02841 35.5952 2.01989 36.8736 1.33807C38.1577 0.650568 39.5952 0.306818 41.1861 0.306818C42.7656 0.306818 44.1974 0.650568 45.4815 1.33807C46.7656 2.01989 47.7855 3.02841 48.5412 4.36364C49.2969 5.69318 49.6747 7.32955 49.6747 9.27273ZM44.7997 9.27273C44.7997 8.22727 44.6605 7.34659 44.3821 6.63068C44.1094 5.90909 43.7031 5.36364 43.1634 4.99432C42.6293 4.61932 41.9702 4.43182 41.1861 4.43182C40.402 4.43182 39.7401 4.61932 39.2003 4.99432C38.6662 5.36364 38.2599 5.90909 37.9815 6.63068C37.7088 7.34659 37.5724 8.22727 37.5724 9.27273C37.5724 10.3182 37.7088 11.2017 37.9815 11.9233C38.2599 12.6392 38.6662 13.1847 39.2003 13.5597C39.7401 13.929 40.402 14.1136 41.1861 14.1136C41.9702 14.1136 42.6293 13.929 43.1634 13.5597C43.7031 13.1847 44.1094 12.6392 44.3821 11.9233C44.6605 11.2017 44.7997 10.3182 44.7997 9.27273ZM68.1626 7.09091H63.3558C63.3217 6.69318 63.2308 6.33239 63.0831 6.00852C62.9411 5.68466 62.7422 5.40625 62.4865 5.17329C62.2365 4.93466 61.9325 4.75284 61.5746 4.62784C61.2166 4.49716 60.8104 4.43182 60.3558 4.43182C59.5604 4.43182 58.8871 4.625 58.3359 5.01136C57.7905 5.39773 57.3757 5.9517 57.0916 6.6733C56.8132 7.39489 56.674 8.26136 56.674 9.27273C56.674 10.3409 56.8161 11.2358 57.1001 11.9574C57.3899 12.6733 57.8075 13.2131 58.353 13.5767C58.8984 13.9347 59.5547 14.1136 60.3217 14.1136C60.7592 14.1136 61.1513 14.0597 61.4979 13.9517C61.8445 13.8381 62.1456 13.6761 62.4013 13.4659C62.657 13.2557 62.8643 13.0028 63.0234 12.7074C63.1882 12.4062 63.299 12.0682 63.3558 11.6932L68.1626 11.7273C68.1058 12.4659 67.8984 13.2187 67.5405 13.9858C67.1825 14.7472 66.674 15.4517 66.0149 16.0994C65.3615 16.7415 64.5518 17.2585 63.5859 17.6506C62.62 18.0426 61.4979 18.2386 60.2195 18.2386C58.6172 18.2386 57.1797 17.8949 55.907 17.2074C54.6399 16.5199 53.6371 15.5085 52.8984 14.1733C52.1655 12.8381 51.799 11.2045 51.799 9.27273C51.799 7.32955 52.174 5.69318 52.924 4.36364C53.674 3.02841 54.6854 2.01989 55.9581 1.33807C57.2308 0.650568 58.6513 0.306818 60.2195 0.306818C61.3217 0.306818 62.3359 0.457386 63.2621 0.758522C64.1882 1.05966 65.0007 1.5 65.6996 2.07954C66.3984 2.65341 66.9609 3.3608 67.3871 4.2017C67.8132 5.04261 68.0717 6.00568 68.1626 7.09091ZM70.3125 18V0.545454H75.0511V7.60227H75.2898L80.5398 0.545454H86.0625L80.1648 8.31818L86.1989 18H80.5398L76.6193 11.4545L75.0511 13.5V18H70.3125ZM87.4688 18V0.545454H92.2074V14.1818H99.2642V18H87.4688ZM97.2997 0.545454H102.584L105.993 7.63636H106.129L109.538 0.545454H114.822L108.413 12.5114V18H103.709V12.5114L97.2997 0.545454Z" fill="#00A180"/>
</svg>
